<!-- <svg xmlns="http://www.w3.org/2000/svg" viewBox="0 0 841.9 595.3"><g fill="#61DAFB"><path d="M666.3 296.5c0-32.5-40.7-63.3-103.1-82.4 14.4-63.6 8-114.2-20.2-130.4-6.5-3.8-14.1-5.6-22.4-5.6v22.3c4.6 0 8.3.9 11.4 2.6 13.6 7.8 19.5 37.5 14.9 75.7-1.1 9.4-2.9 19.3-5.1 29.4-19.6-4.8-41-8.5-63.5-10.9-13.5-18.5-27.5-35.3-41.6-50 32.6-30.3 63.2-46.9 84-46.9V78c-27.5 0-63.5 19.6-99.9 53.6-36.4-33.8-72.4-53.2-99.9-53.2v22.3c20.7 0 51.4 16.5 84 46.6-14 14.7-28 31.4-41.3 49.9-22.6 2.4-44 6.1-63.6 11-2.3-10-4-19.7-5.2-29-4.7-38.2 1.1-67.9 14.6-75.8 3-1.8 6.9-2.6 11.5-2.6V78.5c-8.4 0-16 1.8-22.6 5.6-28.1 16.2-34.4 66.7-19.9 130.1-62.2 19.2-102.7 49.9-102.7 82.3 0 32.5 40.7 63.3 103.1 82.4-14.4 63.6-8 114.2 20.2 130.4 6.5 3.8 14.1 5.6 22.5 5.6 27.5 0 63.5-19.6 99.9-53.6 36.4 33.8 72.4 53.2 99.9 53.2 8.4 0 16-1.8 22.6-5.6 28.1-16.2 34.4-66.7 19.9-130.1 62-19.1 102.5-49.9 102.5-82.3zm-130.2-66.7c-3.7 12.9-8.3 26.2-13.5 39.5-4.1-8-8.4-16-13.1-24-4.6-8-9.5-15.8-14.4-23.4 14.2 2.1 27.9 4.7 41 7.9zm-45.8 106.5c-7.8 13.5-15.8 26.3-24.1 38.2-14.9 1.3-30 2-45.2 2-15.1 0-30.2-.7-45-1.9-8.3-11.9-16.4-24.6-24.2-38-7.6-13.1-14.5-26.4-20.8-39.8 6.2-13.4 13.2-26.8 20.7-39.9 7.8-13.5 15.8-26.3 24.1-38.2 14.9-1.3 30-2 45.2-2 15.1 0 30.2.7 45 1.9 8.3 11.9 16.4 24.6 24.2 38 7.6 13.1 14.5 26.4 20.8 39.8-6.3 13.4-13.2 26.8-20.7 39.9zm32.3-13c5.4 13.4 10 26.8 13.8 39.8-13.1 3.2-26.9 5.9-41.2 8 4.9-7.7 9.8-15.6 14.4-23.7 4.6-8 8.9-16.1 13-24.1zM421.2 430c-9.3-9.6-18.6-20.3-27.8-32 9 .4 18.2.7 27.5.7 9.4 0 18.7-.2 27.8-.7-9 11.7-18.3 22.4-27.5 32zm-74.4-58.9c-14.2-2.1-27.9-4.7-41-7.9 3.7-12.9 8.3-26.2 13.5-39.5 4.1 8 8.4 16 13.1 24 4.7 8 9.5 15.8 14.4 23.4zM420.7 163c9.3 9.6 18.6 20.3 27.8 32-9-.4-18.2-.7-27.5-.7-9.4 0-18.7.2-27.8.7 9-11.7 18.3-22.4 27.5-32zm-74 58.9c-4.9 7.7-9.8 15.6-14.4 23.7-4.6 8-8.9 16-13 24-5.4-13.4-10-26.8-13.8-39.8 13.1-3.1 26.9-5.8 41.2-7.9zm-90.5 125.2c-35.4-15.1-58.3-34.9-58.3-50.6 0-15.7 22.9-35.6 58.3-50.6 8.6-3.7 18-7 27.7-10.1 5.7 19.6 13.2 40 22.5 60.9-9.2 20.8-16.6 41.1-22.2 60.6-9.9-3.1-19.3-6.5-28-10.2zM310 490c-13.6-7.8-19.5-37.5-14.9-75.7 1.1-9.4 2.9-19.3 5.1-29.4 19.6 4.8 41 8.5 63.5 10.9 13.5 18.5 27.5 35.3 41.6 50-32.6 30.3-63.2 46.9-84 46.9-4.5-.1-8.3-1-11.3-2.7zm237.2-76.2c4.7 38.2-1.1 67.9-14.6 75.8-3 1.8-6.9 2.6-11.5 2.6-20.7 0-51.4-16.5-84-46.6 14-14.7 28-31.4 41.3-49.9 22.6-2.4 44-6.1 63.6-11 2.3 10.1 4.1 19.8 5.2 29.1zm38.5-66.7c-8.6 3.7-18 7-27.7 10.1-5.7-19.6-13.2-40-22.5-60.9 9.2-20.8 16.6-41.1 22.2-60.6 9.9 3.1 19.3 6.5 28.1 10.2 35.4 15.1 58.3 34.9 58.3 50.6-.1 15.7-23 35.6-58.4 50.6zM320.8 78.4z"/><circle cx="420.9" cy="296.5" r="45.7"/><path d="M520.5 78.1z"/></g></svg> -->
<!-- <svg xmlns="http://www.w3.org/2000/svg" xmlns:xlink="http://www.w3.org/1999/xlink" aria-hidden="true" role="img" class="iconify iconify--simple-line-icons" width="32" height="32" preserveAspectRatio="xMidYMid meet" viewBox="0 0 1024 1024"><path d="M960 0H64Q38 0 19 19T0 64v896q0 26 19 45t45 19h896q26 0 45-19t19-45V64q0-17-8.5-32T992 8.5T960 0zm0 960H64V64h896v896zM224 352h64v64q0 14 9.5 23t22.5 9t22.5-9t9.5-23v-64h64q13 0 22.5-9t9.5-22.5t-9.5-23T416 288h-64v-64q0-13-9.5-22.5T320 192t-22.5 9.5T288 224v64h-64q-13 0-22.5 9.5t-9.5 23t9.5 22.5t22.5 9zm209.5 239.5q-9.5-9.5-23-9.5t-22.5 9l-68 68l-68-68q-9-9-22.5-9t-23 9.5T197 614t10 22l68 68l-68 68q-6 6-8.5 14.5t0 16.5t8.5 14q4 5 10 7.5t12.5 2.5t12.5-2.5t10-7.5l68-67l68 67q4 5 10 7.5t12.5 2.5t12.5-2.5t10-7.5q23-22 0-45l-68-68l68-68q10-9 10-22t-9.5-22.5zM608 352h192q13 0 22.5-9t9.5-22.5t-9.5-23T800 288H608q-13 0-22.5 9.5t-9.5 23t9.5 22.5t22.5 9zm0 320h192q13 0 22.5-9t9.5-22.5t-9.5-23T800 608H608q-13 0-22.5 9.5t-9.5 23t9.5 22.5t22.5 9zm0 128h192q13 0 22.5-9t9.5-22.5t-9.5-23T800 736H608q-13 0-22.5 9.5t-9.5 23t9.5 22.5t22.5 9z" fill="currentColor"></path></svg> -->

<svg xmlns="http://www.w3.org/2000/svg" xmlns:xlink="http://www.w3.org/1999/xlink" aria-hidden="true" role="img" class="iconify iconify--noto" width="32" height="32" preserveAspectRatio="xMidYMid meet" viewBox="0 0 128 128"><path fill="#E8A746" d="M20 19.27h91v2.5H20z"></path><path fill="#E8A746" d="M20 38.88h91v2.5H20z"></path><path fill="#E8A746" d="M20 58.17h91v2.5H20z"></path><path fill="#E8A746" d="M20 77.17h91v2.5H20z"></path><path fill="#E8A746" d="M20 96.18h91v2.5H20z"></path><linearGradient id="IconifyId-178e66c5c82-d7ef17-16097" x1="14" x2="22" y1="60.5" y2="60.5" gradientUnits="userSpaceOnUse"><stop stop-color="#FBC335" offset="0"></stop><stop stop-color="#FBC843" offset=".032"></stop><stop stop-color="#FDD971" offset=".153"></stop><stop stop-color="#FEE795" offset=".269"></stop><stop stop-color="#FEF1AF" offset=".377"></stop><stop stop-color="#FFF7BF" offset=".474"></stop><stop stop-color="#FFF9C4" offset=".55"></stop><stop stop-color="#FFF8C1" offset=".635"></stop><stop stop-color="#FFF4B6" offset=".708"></stop><stop stop-color="#FEEDA4" offset=".776"></stop><stop stop-color="#FDE48B" offset=".842"></stop><stop stop-color="#FDD76B" offset=".906"></stop><stop stop-color="#FCC944" offset=".968"></stop><stop stop-color="#FBC02D" offset="1"></stop></linearGradient><path d="M20 115h-4c-1.1 0-2-.9-2-2V8c0-1.1.9-2 2-2h4c1.1 0 2 .9 2 2v105c0 1.1-.9 2-2 2z" fill="url(#IconifyId-178e66c5c82-d7ef17-16097)"></path><linearGradient id="IconifyId-178e66c5c82-d7ef17-16098" x1="106" x2="114" y1="60.5" y2="60.5" gradientUnits="userSpaceOnUse"><stop stop-color="#FBC335" offset="0"></stop><stop stop-color="#FBC843" offset=".032"></stop><stop stop-color="#FDD971" offset=".153"></stop><stop stop-color="#FEE795" offset=".269"></stop><stop stop-color="#FEF1AF" offset=".377"></stop><stop stop-color="#FFF7BF" offset=".474"></stop><stop stop-color="#FFF9C4" offset=".55"></stop><stop stop-color="#FFF8C1" offset=".635"></stop><stop stop-color="#FFF4B6" offset=".708"></stop><stop stop-color="#FEEDA4" offset=".776"></stop><stop stop-color="#FDE48B" offset=".842"></stop><stop stop-color="#FDD76B" offset=".906"></stop><stop stop-color="#FCC944" offset=".968"></stop><stop stop-color="#FBC02D" offset="1"></stop></linearGradient><path d="M112 115h-4c-1.1 0-2-.9-2-2V8c0-1.1.9-2 2-2h4c1.1 0 2 .9 2 2v105c0 1.1-.9 2-2 2z" fill="url(#IconifyId-178e66c5c82-d7ef17-16098)"></path><linearGradient id="IconifyId-178e66c5c82-d7ef17-16099" x1="25.5" x2="25.5" y1="14.358" y2="26.196" gradientUnits="userSpaceOnUse"><stop stop-color="#F44336" offset=".001"></stop><stop stop-color="#E51D25" offset="1"></stop></linearGradient><path d="M25.5 27.02c-1.93 0-3.5-1.57-3.5-3.5v-6c0-1.92 1.57-3.5 3.5-3.5c1.92 0 3.5 1.57 3.5 3.5v6c0 1.93-1.57 3.5-3.5 3.5z" fill="url(#IconifyId-178e66c5c82-d7ef17-16099)"></path><linearGradient id="IconifyId-178e66c5c82-d7ef17-16100" x1="33" x2="33" y1="14.358" y2="26.196" gradientUnits="userSpaceOnUse"><stop stop-color="#F44336" offset=".001"></stop><stop stop-color="#E51D25" offset="1"></stop></linearGradient><path d="M33 27.02c-1.93 0-3.5-1.57-3.5-3.5v-6c0-1.92 1.57-3.5 3.5-3.5c1.92 0 3.5 1.57 3.5 3.5v6c0 1.93-1.57 3.5-3.5 3.5z" fill="url(#IconifyId-178e66c5c82-d7ef17-16100)"></path><linearGradient id="IconifyId-178e66c5c82-d7ef17-16101" x1="40.5" x2="40.5" y1="14.358" y2="26.196" gradientUnits="userSpaceOnUse"><stop stop-color="#F44336" offset=".001"></stop><stop stop-color="#E51D25" offset="1"></stop></linearGradient><path d="M40.5 27.02c-1.93 0-3.5-1.57-3.5-3.5v-6c0-1.92 1.57-3.5 3.5-3.5c1.92 0 3.5 1.57 3.5 3.5v6c0 1.93-1.57 3.5-3.5 3.5z" fill="url(#IconifyId-178e66c5c82-d7ef17-16101)"></path><linearGradient id="IconifyId-178e66c5c82-d7ef17-16102" x1="25.5" x2="25.5" y1="33.625" y2="46.625" gradientUnits="userSpaceOnUse"><stop stop-color="#FBC02D" offset="0"></stop><stop stop-color="#FAB022" offset=".102"></stop><stop stop-color="#F89913" offset=".286"></stop><stop stop-color="#F68908" offset=".486"></stop><stop stop-color="#F57F02" offset=".708"></stop><stop stop-color="#F57C00" offset=".999"></stop></linearGradient><path d="M25.5 46.62c-1.93 0-3.5-1.57-3.5-3.5v-6c0-1.92 1.57-3.5 3.5-3.5c1.92 0 3.5 1.57 3.5 3.5v6c0 1.93-1.57 3.5-3.5 3.5z" fill="url(#IconifyId-178e66c5c82-d7ef17-16102)"></path><linearGradient id="IconifyId-178e66c5c82-d7ef17-16103" x1="25.5" x2="25.5" y1="52.925" y2="65.925" gradientUnits="userSpaceOnUse"><stop stop-color="#FCEE21" offset="0"></stop><stop stop-color="#FAEC1D" offset=".051"></stop><stop stop-color="#F0E20D" offset=".316"></stop><stop stop-color="#EADC03" offset=".612"></stop><stop stop-color="#E8DA00" offset="1"></stop></linearGradient><path d="M25.5 65.93a3.51 3.51 0 0 1-3.5-3.5v-6c0-1.92 1.57-3.5 3.5-3.5c1.92 0 3.5 1.58 3.5 3.5v6c0 1.92-1.57 3.5-3.5 3.5z" fill="url(#IconifyId-178e66c5c82-d7ef17-16103)"></path><linearGradient id="IconifyId-178e66c5c82-d7ef17-16104" x1="33.5" x2="33.5" y1="52.925" y2="65.925" gradientUnits="userSpaceOnUse"><stop stop-color="#FCEE21" offset="0"></stop><stop stop-color="#FAEC1D" offset=".051"></stop><stop stop-color="#F0E20D" offset=".316"></stop><stop stop-color="#EADC03" offset=".612"></stop><stop stop-color="#E8DA00" offset="1"></stop></linearGradient><path d="M33.5 65.93a3.51 3.51 0 0 1-3.5-3.5v-6c0-1.92 1.57-3.5 3.5-3.5c1.92 0 3.5 1.58 3.5 3.5v6c0 1.92-1.57 3.5-3.5 3.5z" fill="url(#IconifyId-178e66c5c82-d7ef17-16104)"></path><linearGradient id="IconifyId-178e66c5c82-d7ef17-16105" x1="41.5" x2="41.5" y1="52.925" y2="65.925" gradientUnits="userSpaceOnUse"><stop stop-color="#FCEE21" offset="0"></stop><stop stop-color="#FAEC1D" offset=".051"></stop><stop stop-color="#F0E20D" offset=".316"></stop><stop stop-color="#EADC03" offset=".612"></stop><stop stop-color="#E8DA00" offset="1"></stop></linearGradient><path d="M41.5 65.93a3.51 3.51 0 0 1-3.5-3.5v-6c0-1.92 1.57-3.5 3.5-3.5c1.92 0 3.5 1.58 3.5 3.5v6c0 1.92-1.57 3.5-3.5 3.5z" fill="url(#IconifyId-178e66c5c82-d7ef17-16105)"></path><linearGradient id="IconifyId-178e66c5c82-d7ef17-16106" x1="49.5" x2="49.5" y1="52.925" y2="65.925" gradientUnits="userSpaceOnUse"><stop stop-color="#FCEE21" offset="0"></stop><stop stop-color="#FAEC1D" offset=".051"></stop><stop stop-color="#F0E20D" offset=".316"></stop><stop stop-color="#EADC03" offset=".612"></stop><stop stop-color="#E8DA00" offset="1"></stop></linearGradient><path d="M49.5 65.93a3.51 3.51 0 0 1-3.5-3.5v-6c0-1.92 1.57-3.5 3.5-3.5c1.92 0 3.5 1.58 3.5 3.5v6c0 1.92-1.57 3.5-3.5 3.5z" fill="url(#IconifyId-178e66c5c82-d7ef17-16106)"></path><linearGradient id="IconifyId-178e66c5c82-d7ef17-16107" x1="25.5" x2="25.5" y1="71.917" y2="84.917" gradientUnits="userSpaceOnUse"><stop stop-color="#8CC63F" offset="0"></stop><stop stop-color="#79C340" offset=".081"></stop><stop stop-color="#52BC42" offset=".277"></stop><stop stop-color="#33B643" offset=".471"></stop><stop stop-color="#1DB244" offset=".658"></stop><stop stop-color="#10B045" offset=".838"></stop><stop stop-color="#0BAF45" offset="1"></stop></linearGradient><path d="M25.5 84.92c-1.93 0-3.5-1.57-3.5-3.5v-6c0-1.92 1.57-3.5 3.5-3.5c1.92 0 3.5 1.58 3.5 3.5v6c0 1.92-1.57 3.5-3.5 3.5z" fill="url(#IconifyId-178e66c5c82-d7ef17-16107)"></path><linearGradient id="IconifyId-178e66c5c82-d7ef17-16108" x1="33.5" x2="33.5" y1="71.917" y2="84.917" gradientUnits="userSpaceOnUse"><stop stop-color="#8CC63F" offset="0"></stop><stop stop-color="#79C340" offset=".081"></stop><stop stop-color="#52BC42" offset=".277"></stop><stop stop-color="#33B643" offset=".471"></stop><stop stop-color="#1DB244" offset=".658"></stop><stop stop-color="#10B045" offset=".838"></stop><stop stop-color="#0BAF45" offset="1"></stop></linearGradient><path d="M33.5 84.92c-1.93 0-3.5-1.57-3.5-3.5v-6c0-1.92 1.57-3.5 3.5-3.5c1.92 0 3.5 1.58 3.5 3.5v6c0 1.92-1.57 3.5-3.5 3.5z" fill="url(#IconifyId-178e66c5c82-d7ef17-16108)"></path><linearGradient id="IconifyId-178e66c5c82-d7ef17-16109" x1="41.5" x2="41.5" y1="71.917" y2="84.917" gradientUnits="userSpaceOnUse"><stop stop-color="#8CC63F" offset="0"></stop><stop stop-color="#79C340" offset=".081"></stop><stop stop-color="#52BC42" offset=".277"></stop><stop stop-color="#33B643" offset=".471"></stop><stop stop-color="#1DB244" offset=".658"></stop><stop stop-color="#10B045" offset=".838"></stop><stop stop-color="#0BAF45" offset="1"></stop></linearGradient><path d="M41.5 84.92c-1.93 0-3.5-1.57-3.5-3.5v-6c0-1.92 1.57-3.5 3.5-3.5c1.92 0 3.5 1.58 3.5 3.5v6c0 1.92-1.57 3.5-3.5 3.5z" fill="url(#IconifyId-178e66c5c82-d7ef17-16109)"></path><linearGradient id="IconifyId-178e66c5c82-d7ef17-16110" x1="49.5" x2="49.5" y1="71.917" y2="84.917" gradientUnits="userSpaceOnUse"><stop stop-color="#8CC63F" offset="0"></stop><stop stop-color="#79C340" offset=".081"></stop><stop stop-color="#52BC42" offset=".277"></stop><stop stop-color="#33B643" offset=".471"></stop><stop stop-color="#1DB244" offset=".658"></stop><stop stop-color="#10B045" offset=".838"></stop><stop stop-color="#0BAF45" offset="1"></stop></linearGradient><path d="M49.5 84.92c-1.93 0-3.5-1.57-3.5-3.5v-6c0-1.92 1.57-3.5 3.5-3.5c1.92 0 3.5 1.58 3.5 3.5v6c0 1.92-1.57 3.5-3.5 3.5z" fill="url(#IconifyId-178e66c5c82-d7ef17-16110)"></path><linearGradient id="IconifyId-178e66c5c82-d7ef17-16111" x1="62.5" x2="62.5" y1="71.917" y2="84.917" gradientUnits="userSpaceOnUse"><stop stop-color="#8CC63F" offset="0"></stop><stop stop-color="#79C340" offset=".081"></stop><stop stop-color="#52BC42" offset=".277"></stop><stop stop-color="#33B643" offset=".471"></stop><stop stop-color="#1DB244" offset=".658"></stop><stop stop-color="#10B045" offset=".838"></stop><stop stop-color="#0BAF45" offset="1"></stop></linearGradient><path d="M62.5 84.92c-1.93 0-3.5-1.57-3.5-3.5v-6c0-1.92 1.57-3.5 3.5-3.5c1.92 0 3.5 1.58 3.5 3.5v6c0 1.92-1.57 3.5-3.5 3.5z" fill="url(#IconifyId-178e66c5c82-d7ef17-16111)"></path><linearGradient id="IconifyId-178e66c5c82-d7ef17-16112" x1="70.5" x2="70.5" y1="71.917" y2="84.917" gradientUnits="userSpaceOnUse"><stop stop-color="#8CC63F" offset="0"></stop><stop stop-color="#79C340" offset=".081"></stop><stop stop-color="#52BC42" offset=".277"></stop><stop stop-color="#33B643" offset=".471"></stop><stop stop-color="#1DB244" offset=".658"></stop><stop stop-color="#10B045" offset=".838"></stop><stop stop-color="#0BAF45" offset="1"></stop></linearGradient><path d="M70.5 84.92c-1.93 0-3.5-1.57-3.5-3.5v-6c0-1.92 1.57-3.5 3.5-3.5s3.5 1.58 3.5 3.5v6c0 1.92-1.57 3.5-3.5 3.5z" fill="url(#IconifyId-178e66c5c82-d7ef17-16112)"></path><linearGradient id="IconifyId-178e66c5c82-d7ef17-16113" x1="78.5" x2="78.5" y1="71.917" y2="84.917" gradientUnits="userSpaceOnUse"><stop stop-color="#8CC63F" offset="0"></stop><stop stop-color="#79C340" offset=".081"></stop><stop stop-color="#52BC42" offset=".277"></stop><stop stop-color="#33B643" offset=".471"></stop><stop stop-color="#1DB244" offset=".658"></stop><stop stop-color="#10B045" offset=".838"></stop><stop stop-color="#0BAF45" offset="1"></stop></linearGradient><path d="M78.5 84.92c-1.93 0-3.5-1.57-3.5-3.5v-6c0-1.92 1.57-3.5 3.5-3.5s3.5 1.58 3.5 3.5v6c0 1.92-1.57 3.5-3.5 3.5z" fill="url(#IconifyId-178e66c5c82-d7ef17-16113)"></path><g fill="#424242" opacity=".2"><path d="M25.5 73.92c.83 0 1.5.67 1.5 1.5v6c0 .83-.67 1.5-1.5 1.5s-1.5-.67-1.5-1.5v-6c0-.83.67-1.5 1.5-1.5m0-2a3.51 3.51 0 0 0-3.5 3.5v6c0 1.92 1.58 3.5 3.5 3.5s3.5-1.57 3.5-3.5v-6c0-1.93-1.58-3.5-3.5-3.5z"></path><path d="M33.5 73.92c.83 0 1.5.67 1.5 1.5v6c0 .83-.67 1.5-1.5 1.5s-1.5-.67-1.5-1.5v-6c0-.83.67-1.5 1.5-1.5m0-2a3.51 3.51 0 0 0-3.5 3.5v6c0 1.92 1.58 3.5 3.5 3.5s3.5-1.57 3.5-3.5v-6c0-1.93-1.58-3.5-3.5-3.5z"></path><path d="M41.5 73.92c.83 0 1.5.67 1.5 1.5v6c0 .83-.67 1.5-1.5 1.5s-1.5-.67-1.5-1.5v-6c0-.83.67-1.5 1.5-1.5m0-2a3.51 3.51 0 0 0-3.5 3.5v6c0 1.92 1.58 3.5 3.5 3.5s3.5-1.57 3.5-3.5v-6c0-1.93-1.58-3.5-3.5-3.5z"></path><path d="M49.5 73.92c.83 0 1.5.67 1.5 1.5v6c0 .83-.67 1.5-1.5 1.5s-1.5-.67-1.5-1.5v-6c0-.83.67-1.5 1.5-1.5m0-2a3.51 3.51 0 0 0-3.5 3.5v6c0 1.92 1.58 3.5 3.5 3.5s3.5-1.57 3.5-3.5v-6c0-1.93-1.58-3.5-3.5-3.5z"></path><path d="M62.5 73.92c.83 0 1.5.67 1.5 1.5v6c0 .83-.67 1.5-1.5 1.5s-1.5-.67-1.5-1.5v-6c0-.83.67-1.5 1.5-1.5m0-2c-1.93 0-3.5 1.57-3.5 3.5v6c0 1.92 1.57 3.5 3.5 3.5s3.5-1.57 3.5-3.5v-6c0-1.93-1.57-3.5-3.5-3.5z"></path><path d="M70.5 73.92c.83 0 1.5.67 1.5 1.5v6c0 .83-.67 1.5-1.5 1.5s-1.5-.67-1.5-1.5v-6c0-.83.67-1.5 1.5-1.5m0-2c-1.93 0-3.5 1.57-3.5 3.5v6c0 1.92 1.57 3.5 3.5 3.5s3.5-1.57 3.5-3.5v-6c0-1.93-1.57-3.5-3.5-3.5z"></path><path d="M78.5 73.92c.83 0 1.5.67 1.5 1.5v6c0 .83-.67 1.5-1.5 1.5s-1.5-.67-1.5-1.5v-6c0-.83.67-1.5 1.5-1.5m0-2c-1.93 0-3.5 1.57-3.5 3.5v6c0 1.92 1.57 3.5 3.5 3.5s3.5-1.57 3.5-3.5v-6c0-1.93-1.57-3.5-3.5-3.5z"></path></g><linearGradient id="IconifyId-178e66c5c82-d7ef17-16114" x1="57.5" x2="57.5" y1="52.925" y2="65.925" gradientUnits="userSpaceOnUse"><stop stop-color="#FCEE21" offset="0"></stop><stop stop-color="#FAEC1D" offset=".051"></stop><stop stop-color="#F0E20D" offset=".316"></stop><stop stop-color="#EADC03" offset=".612"></stop><stop stop-color="#E8DA00" offset="1"></stop></linearGradient><path d="M57.5 65.93a3.51 3.51 0 0 1-3.5-3.5v-6c0-1.92 1.57-3.5 3.5-3.5c1.92 0 3.5 1.58 3.5 3.5v6c0 1.92-1.57 3.5-3.5 3.5z" fill="url(#IconifyId-178e66c5c82-d7ef17-16114)"></path><linearGradient id="IconifyId-178e66c5c82-d7ef17-16115" x1="65.5" x2="65.5" y1="52.925" y2="65.925" gradientUnits="userSpaceOnUse"><stop stop-color="#FCEE21" offset="0"></stop><stop stop-color="#FAEC1D" offset=".051"></stop><stop stop-color="#F0E20D" offset=".316"></stop><stop stop-color="#EADC03" offset=".612"></stop><stop stop-color="#E8DA00" offset="1"></stop></linearGradient><path d="M65.5 65.93a3.51 3.51 0 0 1-3.5-3.5v-6c0-1.92 1.57-3.5 3.5-3.5s3.5 1.58 3.5 3.5v6c0 1.92-1.57 3.5-3.5 3.5z" fill="url(#IconifyId-178e66c5c82-d7ef17-16115)"></path><linearGradient id="IconifyId-178e66c5c82-d7ef17-16116" x1="73.5" x2="73.5" y1="52.925" y2="65.925" gradientUnits="userSpaceOnUse"><stop stop-color="#FCEE21" offset="0"></stop><stop stop-color="#FAEC1D" offset=".051"></stop><stop stop-color="#F0E20D" offset=".316"></stop><stop stop-color="#EADC03" offset=".612"></stop><stop stop-color="#E8DA00" offset="1"></stop></linearGradient><path d="M73.5 65.93a3.51 3.51 0 0 1-3.5-3.5v-6c0-1.92 1.57-3.5 3.5-3.5s3.5 1.58 3.5 3.5v6c0 1.92-1.57 3.5-3.5 3.5z" fill="url(#IconifyId-178e66c5c82-d7ef17-16116)"></path><linearGradient id="IconifyId-178e66c5c82-d7ef17-16117" x1="81.5" x2="81.5" y1="52.925" y2="65.925" gradientUnits="userSpaceOnUse"><stop stop-color="#FCEE21" offset="0"></stop><stop stop-color="#FAEC1D" offset=".051"></stop><stop stop-color="#F0E20D" offset=".316"></stop><stop stop-color="#EADC03" offset=".612"></stop><stop stop-color="#E8DA00" offset="1"></stop></linearGradient><path d="M81.5 65.93a3.51 3.51 0 0 1-3.5-3.5v-6c0-1.92 1.57-3.5 3.5-3.5s3.5 1.58 3.5 3.5v6c0 1.92-1.57 3.5-3.5 3.5z" fill="url(#IconifyId-178e66c5c82-d7ef17-16117)"></path><linearGradient id="IconifyId-178e66c5c82-d7ef17-16118" x1="89.5" x2="89.5" y1="52.925" y2="65.925" gradientUnits="userSpaceOnUse"><stop stop-color="#FCEE21" offset="0"></stop><stop stop-color="#FAEC1D" offset=".051"></stop><stop stop-color="#F0E20D" offset=".316"></stop><stop stop-color="#EADC03" offset=".612"></stop><stop stop-color="#E8DA00" offset="1"></stop></linearGradient><path d="M89.5 65.93a3.51 3.51 0 0 1-3.5-3.5v-6c0-1.92 1.57-3.5 3.5-3.5s3.5 1.58 3.5 3.5v6c0 1.92-1.57 3.5-3.5 3.5z" fill="url(#IconifyId-178e66c5c82-d7ef17-16118)"></path><linearGradient id="IconifyId-178e66c5c82-d7ef17-16119" x1="33.5" x2="33.5" y1="33.625" y2="46.625" gradientUnits="userSpaceOnUse"><stop stop-color="#FBC02D" offset="0"></stop><stop stop-color="#FAB022" offset=".102"></stop><stop stop-color="#F89913" offset=".286"></stop><stop stop-color="#F68908" offset=".486"></stop><stop stop-color="#F57F02" offset=".708"></stop><stop stop-color="#F57C00" offset=".999"></stop></linearGradient><path d="M33.5 46.62c-1.93 0-3.5-1.57-3.5-3.5v-6c0-1.92 1.57-3.5 3.5-3.5c1.92 0 3.5 1.57 3.5 3.5v6c0 1.93-1.57 3.5-3.5 3.5z" fill="url(#IconifyId-178e66c5c82-d7ef17-16119)"></path><linearGradient id="IconifyId-178e66c5c82-d7ef17-16120" x1="43.5" x2="43.5" y1="33.625" y2="46.625" gradientUnits="userSpaceOnUse"><stop stop-color="#FBC02D" offset="0"></stop><stop stop-color="#FAB022" offset=".102"></stop><stop stop-color="#F89913" offset=".286"></stop><stop stop-color="#F68908" offset=".486"></stop><stop stop-color="#F57F02" offset=".708"></stop><stop stop-color="#F57C00" offset=".999"></stop></linearGradient><path d="M43.5 46.62c-1.93 0-3.5-1.57-3.5-3.5v-6c0-1.92 1.57-3.5 3.5-3.5c1.92 0 3.5 1.57 3.5 3.5v6c0 1.93-1.57 3.5-3.5 3.5z" fill="url(#IconifyId-178e66c5c82-d7ef17-16120)"></path><linearGradient id="IconifyId-178e66c5c82-d7ef17-16121" x1="48" x2="48" y1="14.358" y2="26.196" gradientUnits="userSpaceOnUse"><stop stop-color="#F44336" offset=".001"></stop><stop stop-color="#E51D25" offset="1"></stop></linearGradient><path d="M48 27.02c-1.93 0-3.5-1.57-3.5-3.5v-6c0-1.92 1.57-3.5 3.5-3.5c1.92 0 3.5 1.57 3.5 3.5v6c0 1.93-1.57 3.5-3.5 3.5z" fill="url(#IconifyId-178e66c5c82-d7ef17-16121)"></path><linearGradient id="IconifyId-178e66c5c82-d7ef17-16122" x1="55.5" x2="55.5" y1="14.358" y2="26.196" gradientUnits="userSpaceOnUse"><stop stop-color="#F44336" offset=".001"></stop><stop stop-color="#E51D25" offset="1"></stop></linearGradient><path d="M55.5 27.02c-1.93 0-3.5-1.57-3.5-3.5v-6c0-1.92 1.57-3.5 3.5-3.5c1.92 0 3.5 1.57 3.5 3.5v6c0 1.93-1.57 3.5-3.5 3.5z" fill="url(#IconifyId-178e66c5c82-d7ef17-16122)"></path><linearGradient id="IconifyId-178e66c5c82-d7ef17-16123" x1="65.5" x2="65.5" y1="14.358" y2="26.196" gradientUnits="userSpaceOnUse"><stop stop-color="#F44336" offset=".001"></stop><stop stop-color="#E51D25" offset="1"></stop></linearGradient><path d="M65.5 27.02c-1.93 0-3.5-1.57-3.5-3.5v-6c0-1.92 1.57-3.5 3.5-3.5s3.5 1.57 3.5 3.5v6c0 1.93-1.57 3.5-3.5 3.5z" fill="url(#IconifyId-178e66c5c82-d7ef17-16123)"></path><linearGradient id="IconifyId-178e66c5c82-d7ef17-16124" x1="72.5" x2="72.5" y1="33.625" y2="46.625" gradientUnits="userSpaceOnUse"><stop stop-color="#FBC02D" offset="0"></stop><stop stop-color="#FAB022" offset=".102"></stop><stop stop-color="#F89913" offset=".286"></stop><stop stop-color="#F68908" offset=".486"></stop><stop stop-color="#F57F02" offset=".708"></stop><stop stop-color="#F57C00" offset=".999"></stop></linearGradient><path d="M72.5 46.62c-1.93 0-3.5-1.57-3.5-3.5v-6c0-1.92 1.57-3.5 3.5-3.5s3.5 1.57 3.5 3.5v6c0 1.93-1.57 3.5-3.5 3.5z" fill="url(#IconifyId-178e66c5c82-d7ef17-16124)"></path><linearGradient id="IconifyId-178e66c5c82-d7ef17-16125" x1="64.5" x2="64.5" y1="33.625" y2="46.625" gradientUnits="userSpaceOnUse"><stop stop-color="#FBC02D" offset="0"></stop><stop stop-color="#FAB022" offset=".102"></stop><stop stop-color="#F89913" offset=".286"></stop><stop stop-color="#F68908" offset=".486"></stop><stop stop-color="#F57F02" offset=".708"></stop><stop stop-color="#F57C00" offset=".999"></stop></linearGradient><path d="M64.5 46.62c-1.93 0-3.5-1.57-3.5-3.5v-6c0-1.92 1.57-3.5 3.5-3.5s3.5 1.57 3.5 3.5v6c0 1.93-1.57 3.5-3.5 3.5z" fill="url(#IconifyId-178e66c5c82-d7ef17-16125)"></path><linearGradient id="IconifyId-178e66c5c82-d7ef17-16126" x1="80" x2="80" y1="33.625" y2="46.625" gradientUnits="userSpaceOnUse"><stop stop-color="#FBC02D" offset="0"></stop><stop stop-color="#FAB022" offset=".102"></stop><stop stop-color="#F89913" offset=".286"></stop><stop stop-color="#F68908" offset=".486"></stop><stop stop-color="#F57F02" offset=".708"></stop><stop stop-color="#F57C00" offset=".999"></stop></linearGradient><path d="M80 46.62c-1.93 0-3.5-1.57-3.5-3.5v-6c0-1.92 1.57-3.5 3.5-3.5s3.5 1.57 3.5 3.5v6c0 1.93-1.57 3.5-3.5 3.5z" fill="url(#IconifyId-178e66c5c82-d7ef17-16126)"></path><linearGradient id="IconifyId-178e66c5c82-d7ef17-16127" x1="87.5" x2="87.5" y1="33.625" y2="46.625" gradientUnits="userSpaceOnUse"><stop stop-color="#FBC02D" offset="0"></stop><stop stop-color="#FAB022" offset=".102"></stop><stop stop-color="#F89913" offset=".286"></stop><stop stop-color="#F68908" offset=".486"></stop><stop stop-color="#F57F02" offset=".708"></stop><stop stop-color="#F57C00" offset=".999"></stop></linearGradient><path d="M87.5 46.62c-1.93 0-3.5-1.57-3.5-3.5v-6c0-1.92 1.57-3.5 3.5-3.5s3.5 1.57 3.5 3.5v6c0 1.93-1.57 3.5-3.5 3.5z" fill="url(#IconifyId-178e66c5c82-d7ef17-16127)"></path><linearGradient id="IconifyId-178e66c5c82-d7ef17-16128" x1="95" x2="95" y1="33.625" y2="46.625" gradientUnits="userSpaceOnUse"><stop stop-color="#FBC02D" offset="0"></stop><stop stop-color="#FAB022" offset=".102"></stop><stop stop-color="#F89913" offset=".286"></stop><stop stop-color="#F68908" offset=".486"></stop><stop stop-color="#F57F02" offset=".708"></stop><stop stop-color="#F57C00" offset=".999"></stop></linearGradient><path d="M95 46.62c-1.93 0-3.5-1.57-3.5-3.5v-6c0-1.92 1.57-3.5 3.5-3.5s3.5 1.57 3.5 3.5v6c0 1.93-1.57 3.5-3.5 3.5z" fill="url(#IconifyId-178e66c5c82-d7ef17-16128)"></path><linearGradient id="IconifyId-178e66c5c82-d7ef17-16129" x1="102.5" x2="102.5" y1="33.625" y2="46.625" gradientUnits="userSpaceOnUse"><stop stop-color="#FBC02D" offset="0"></stop><stop stop-color="#FAB022" offset=".102"></stop><stop stop-color="#F89913" offset=".286"></stop><stop stop-color="#F68908" offset=".486"></stop><stop stop-color="#F57F02" offset=".708"></stop><stop stop-color="#F57C00" offset=".999"></stop></linearGradient><path d="M102.5 46.62c-1.93 0-3.5-1.57-3.5-3.5v-6c0-1.92 1.57-3.5 3.5-3.5s3.5 1.57 3.5 3.5v6c0 1.93-1.57 3.5-3.5 3.5z" fill="url(#IconifyId-178e66c5c82-d7ef17-16129)"></path><linearGradient id="IconifyId-178e66c5c82-d7ef17-16130" x1="25.5" x2="25.5" y1="90.925" y2="103.92" gradientUnits="userSpaceOnUse"><stop stop-color="#2196F3" offset="0"></stop><stop stop-color="#1F8DEA" offset=".459"></stop><stop stop-color="#1E88E5" offset="1"></stop></linearGradient><path d="M25.5 103.93a3.51 3.51 0 0 1-3.5-3.5v-6c0-1.92 1.57-3.5 3.5-3.5c1.92 0 3.5 1.57 3.5 3.5v6c0 1.92-1.57 3.5-3.5 3.5z" fill="url(#IconifyId-178e66c5c82-d7ef17-16130)"></path><linearGradient id="IconifyId-178e66c5c82-d7ef17-16131" x1="33.5" x2="33.5" y1="90.925" y2="103.92" gradientUnits="userSpaceOnUse"><stop stop-color="#2196F3" offset="0"></stop><stop stop-color="#1F8DEA" offset=".459"></stop><stop stop-color="#1E88E5" offset="1"></stop></linearGradient><path d="M33.5 103.93a3.51 3.51 0 0 1-3.5-3.5v-6c0-1.92 1.57-3.5 3.5-3.5c1.92 0 3.5 1.57 3.5 3.5v6c0 1.92-1.57 3.5-3.5 3.5z" fill="url(#IconifyId-178e66c5c82-d7ef17-16131)"></path><linearGradient id="IconifyId-178e66c5c82-d7ef17-16132" x1="41.5" x2="41.5" y1="90.925" y2="103.92" gradientUnits="userSpaceOnUse"><stop stop-color="#2196F3" offset="0"></stop><stop stop-color="#1F8DEA" offset=".459"></stop><stop stop-color="#1E88E5" offset="1"></stop></linearGradient><path d="M41.5 103.93a3.51 3.51 0 0 1-3.5-3.5v-6c0-1.92 1.57-3.5 3.5-3.5c1.92 0 3.5 1.57 3.5 3.5v6c0 1.92-1.57 3.5-3.5 3.5z" fill="url(#IconifyId-178e66c5c82-d7ef17-16132)"></path><linearGradient id="IconifyId-178e66c5c82-d7ef17-16133" x1="67.5" x2="67.5" y1="90.925" y2="103.92" gradientUnits="userSpaceOnUse"><stop stop-color="#2196F3" offset="0"></stop><stop stop-color="#1F8DEA" offset=".459"></stop><stop stop-color="#1E88E5" offset="1"></stop></linearGradient><path d="M67.5 103.93a3.51 3.51 0 0 1-3.5-3.5v-6c0-1.92 1.57-3.5 3.5-3.5s3.5 1.57 3.5 3.5v6c0 1.92-1.57 3.5-3.5 3.5z" fill="url(#IconifyId-178e66c5c82-d7ef17-16133)"></path><linearGradient id="IconifyId-178e66c5c82-d7ef17-16134" x1="59.5" x2="59.5" y1="90.925" y2="103.92" gradientUnits="userSpaceOnUse"><stop stop-color="#2196F3" offset="0"></stop><stop stop-color="#1F8DEA" offset=".459"></stop><stop stop-color="#1E88E5" offset="1"></stop></linearGradient><path d="M59.5 103.93a3.51 3.51 0 0 1-3.5-3.5v-6c0-1.92 1.57-3.5 3.5-3.5c1.92 0 3.5 1.57 3.5 3.5v6c0 1.92-1.57 3.5-3.5 3.5z" fill="url(#IconifyId-178e66c5c82-d7ef17-16134)"></path><linearGradient id="IconifyId-178e66c5c82-d7ef17-16135" x1="79" x2="79" y1="90.925" y2="103.92" gradientUnits="userSpaceOnUse"><stop stop-color="#2196F3" offset="0"></stop><stop stop-color="#1F8DEA" offset=".459"></stop><stop stop-color="#1E88E5" offset="1"></stop></linearGradient><path d="M79 103.93a3.51 3.51 0 0 1-3.5-3.5v-6c0-1.92 1.57-3.5 3.5-3.5s3.5 1.57 3.5 3.5v6c0 1.92-1.57 3.5-3.5 3.5z" fill="url(#IconifyId-178e66c5c82-d7ef17-16135)"></path><linearGradient id="IconifyId-178e66c5c82-d7ef17-16136" x1="86.5" x2="86.5" y1="90.925" y2="103.92" gradientUnits="userSpaceOnUse"><stop stop-color="#2196F3" offset="0"></stop><stop stop-color="#1F8DEA" offset=".459"></stop><stop stop-color="#1E88E5" offset="1"></stop></linearGradient><path d="M86.5 103.93a3.51 3.51 0 0 1-3.5-3.5v-6c0-1.92 1.57-3.5 3.5-3.5s3.5 1.57 3.5 3.5v6c0 1.92-1.57 3.5-3.5 3.5z" fill="url(#IconifyId-178e66c5c82-d7ef17-16136)"></path><linearGradient id="IconifyId-178e66c5c82-d7ef17-16137" x1="94" x2="94" y1="90.925" y2="103.92" gradientUnits="userSpaceOnUse"><stop stop-color="#2196F3" offset="0"></stop><stop stop-color="#1F8DEA" offset=".459"></stop><stop stop-color="#1E88E5" offset="1"></stop></linearGradient><path d="M94 103.93a3.51 3.51 0 0 1-3.5-3.5v-6c0-1.92 1.57-3.5 3.5-3.5s3.5 1.57 3.5 3.5v6c0 1.92-1.57 3.5-3.5 3.5z" fill="url(#IconifyId-178e66c5c82-d7ef17-16137)"></path><linearGradient id="IconifyId-178e66c5c82-d7ef17-16138" x1="101.5" x2="101.5" y1="90.925" y2="103.92" gradientUnits="userSpaceOnUse"><stop stop-color="#2196F3" offset="0"></stop><stop stop-color="#1F8DEA" offset=".459"></stop><stop stop-color="#1E88E5" offset="1"></stop></linearGradient><path d="M101.5 103.93a3.51 3.51 0 0 1-3.5-3.5v-6c0-1.92 1.57-3.5 3.5-3.5s3.5 1.57 3.5 3.5v6c0 1.92-1.57 3.5-3.5 3.5z" fill="url(#IconifyId-178e66c5c82-d7ef17-16138)"></path><linearGradient id="IconifyId-178e66c5c82-d7ef17-16139" x1="86.5" x2="86.5" y1="14.358" y2="26.196" gradientUnits="userSpaceOnUse"><stop stop-color="#F44336" offset=".001"></stop><stop stop-color="#E51D25" offset="1"></stop></linearGradient><path d="M86.5 27.02c-1.93 0-3.5-1.57-3.5-3.5v-6c0-1.92 1.57-3.5 3.5-3.5s3.5 1.57 3.5 3.5v6c0 1.93-1.57 3.5-3.5 3.5z" fill="url(#IconifyId-178e66c5c82-d7ef17-16139)"></path><linearGradient id="IconifyId-178e66c5c82-d7ef17-16140" x1="94.5" x2="94.5" y1="14.358" y2="26.196" gradientUnits="userSpaceOnUse"><stop stop-color="#F44336" offset=".001"></stop><stop stop-color="#E51D25" offset="1"></stop></linearGradient><path d="M94.5 27.02c-1.93 0-3.5-1.57-3.5-3.5v-6c0-1.92 1.57-3.5 3.5-3.5s3.5 1.57 3.5 3.5v6c0 1.93-1.57 3.5-3.5 3.5z" fill="url(#IconifyId-178e66c5c82-d7ef17-16140)"></path><linearGradient id="IconifyId-178e66c5c82-d7ef17-16141" x1="102.5" x2="102.5" y1="14.358" y2="26.196" gradientUnits="userSpaceOnUse"><stop stop-color="#F44336" offset=".001"></stop><stop stop-color="#E51D25" offset="1"></stop></linearGradient><path d="M102.5 27.02c-1.93 0-3.5-1.57-3.5-3.5v-6c0-1.92 1.57-3.5 3.5-3.5s3.5 1.57 3.5 3.5v6c0 1.93-1.57 3.5-3.5 3.5z" fill="url(#IconifyId-178e66c5c82-d7ef17-16141)"></path><path d="M20 8v105h-4V8h4m0-2h-4c-1.1 0-2 .9-2 2v105c0 1.1.9 2 2 2h4c1.1 0 2-.9 2-2V8c0-1.1-.9-2-2-2z" fill="#424242" opacity=".2"></path><path d="M112 8v105h-4V8h4m0-2h-4c-1.1 0-2 .9-2 2v105c0 1.1.9 2 2 2h4c1.1 0 2-.9 2-2V8c0-1.1-.9-2-2-2z" fill="#424242" opacity=".2"></path><linearGradient id="IconifyId-178e66c5c82-d7ef17-16142" x1="64" x2="64" y1="112.12" y2="123.89" gradientUnits="userSpaceOnUse"><stop stop-color="#FFF9C4" offset="0"></stop><stop stop-color="#FEE897" offset=".072"></stop><stop stop-color="#FCD565" offset=".164"></stop><stop stop-color="#FBC946" offset=".234"></stop><stop stop-color="#FBC53A" offset=".273"></stop><stop stop-color="#FBC539" offset=".294"></stop><stop stop-color="#FBC130" offset=".586"></stop><stop stop-color="#FBC02D" offset="1"></stop></linearGradient><path d="M118 124H10c-1.1 0-2-.9-2-2v-8c0-1.1.9-2 2-2h108c1.1 0 2 .9 2 2v8c0 1.1-.9 2-2 2z" fill="url(#IconifyId-178e66c5c82-d7ef17-16142)"></path><path d="M118 114v8H10v-8h108m0-2H10c-1.1 0-2 .9-2 2v8c0 1.1.9 2 2 2h108c1.1 0 2-.9 2-2v-8c0-1.1-.9-2-2-2z" fill="#424242" opacity=".2"></path><g fill="#424242" opacity=".2"><path d="M25.5 16.02c.83 0 1.5.67 1.5 1.5v6c0 .83-.67 1.5-1.5 1.5s-1.5-.67-1.5-1.5v-6c0-.82.67-1.5 1.5-1.5m0-2a3.51 3.51 0 0 0-3.5 3.5v6c0 1.92 1.58 3.5 3.5 3.5s3.5-1.58 3.5-3.5v-6c0-1.92-1.58-3.5-3.5-3.5z"></path><path d="M33 16.02c.83 0 1.5.67 1.5 1.5v6c0 .83-.67 1.5-1.5 1.5s-1.5-.67-1.5-1.5v-6c0-.82.67-1.5 1.5-1.5m0-2a3.51 3.51 0 0 0-3.5 3.5v6c0 1.92 1.58 3.5 3.5 3.5s3.5-1.58 3.5-3.5v-6c0-1.92-1.58-3.5-3.5-3.5z"></path><path d="M40.5 16.02c.83 0 1.5.67 1.5 1.5v6c0 .83-.67 1.5-1.5 1.5s-1.5-.67-1.5-1.5v-6c0-.82.67-1.5 1.5-1.5m0-2a3.51 3.51 0 0 0-3.5 3.5v6c0 1.92 1.58 3.5 3.5 3.5s3.5-1.58 3.5-3.5v-6c0-1.92-1.58-3.5-3.5-3.5z"></path><path d="M48 16.02c.83 0 1.5.67 1.5 1.5v6c0 .83-.67 1.5-1.5 1.5s-1.5-.67-1.5-1.5v-6c0-.82.67-1.5 1.5-1.5m0-2a3.51 3.51 0 0 0-3.5 3.5v6c0 1.92 1.58 3.5 3.5 3.5s3.5-1.58 3.5-3.5v-6c0-1.92-1.58-3.5-3.5-3.5z"></path><path d="M55.5 16.02c.83 0 1.5.67 1.5 1.5v6c0 .83-.67 1.5-1.5 1.5s-1.5-.67-1.5-1.5v-6c0-.82.67-1.5 1.5-1.5m0-2a3.51 3.51 0 0 0-3.5 3.5v6c0 1.92 1.58 3.5 3.5 3.5s3.5-1.58 3.5-3.5v-6c0-1.92-1.58-3.5-3.5-3.5z"></path><path d="M65.5 16.02c.83 0 1.5.67 1.5 1.5v6c0 .83-.67 1.5-1.5 1.5s-1.5-.67-1.5-1.5v-6c0-.82.67-1.5 1.5-1.5m0-2a3.51 3.51 0 0 0-3.5 3.5v6c0 1.92 1.58 3.5 3.5 3.5c1.93 0 3.5-1.58 3.5-3.5v-6c0-1.92-1.57-3.5-3.5-3.5z"></path><path d="M86.5 16.02c.83 0 1.5.67 1.5 1.5v6c0 .83-.67 1.5-1.5 1.5s-1.5-.67-1.5-1.5v-6c0-.82.67-1.5 1.5-1.5m0-2c-1.93 0-3.5 1.57-3.5 3.5v6c0 1.92 1.57 3.5 3.5 3.5s3.5-1.58 3.5-3.5v-6c0-1.92-1.57-3.5-3.5-3.5z"></path><path d="M94.5 16.02c.83 0 1.5.67 1.5 1.5v6c0 .83-.67 1.5-1.5 1.5s-1.5-.67-1.5-1.5v-6c0-.82.67-1.5 1.5-1.5m0-2c-1.93 0-3.5 1.57-3.5 3.5v6c0 1.92 1.57 3.5 3.5 3.5s3.5-1.58 3.5-3.5v-6c0-1.92-1.57-3.5-3.5-3.5z"></path><path d="M102.5 16.02c.83 0 1.5.67 1.5 1.5v6c0 .83-.67 1.5-1.5 1.5s-1.5-.67-1.5-1.5v-6c0-.82.67-1.5 1.5-1.5m0-2c-1.93 0-3.5 1.57-3.5 3.5v6c0 1.92 1.57 3.5 3.5 3.5s3.5-1.58 3.5-3.5v-6c0-1.92-1.57-3.5-3.5-3.5z"></path></g><g fill="#424242" opacity=".2"><path d="M25.5 35.62c.83 0 1.5.67 1.5 1.5v6c0 .83-.67 1.5-1.5 1.5s-1.5-.67-1.5-1.5v-6c0-.82.67-1.5 1.5-1.5m0-2c-1.92 0-3.5 1.58-3.5 3.5v6c0 1.92 1.58 3.5 3.5 3.5s3.5-1.58 3.5-3.5v-6c0-1.92-1.58-3.5-3.5-3.5z"></path><path d="M33.5 35.62c.83 0 1.5.67 1.5 1.5v6c0 .83-.67 1.5-1.5 1.5s-1.5-.67-1.5-1.5v-6c0-.82.67-1.5 1.5-1.5m0-2c-1.92 0-3.5 1.58-3.5 3.5v6c0 1.92 1.58 3.5 3.5 3.5s3.5-1.58 3.5-3.5v-6c0-1.92-1.58-3.5-3.5-3.5z"></path><path d="M43.5 35.62c.83 0 1.5.67 1.5 1.5v6c0 .83-.67 1.5-1.5 1.5s-1.5-.67-1.5-1.5v-6c0-.82.67-1.5 1.5-1.5m0-2c-1.92 0-3.5 1.58-3.5 3.5v6c0 1.92 1.58 3.5 3.5 3.5s3.5-1.58 3.5-3.5v-6c0-1.92-1.58-3.5-3.5-3.5z"></path><path d="M72.5 35.62c.83 0 1.5.67 1.5 1.5v6c0 .83-.67 1.5-1.5 1.5s-1.5-.67-1.5-1.5v-6c0-.82.67-1.5 1.5-1.5m0-2a3.51 3.51 0 0 0-3.5 3.5v6c0 1.92 1.57 3.5 3.5 3.5s3.5-1.58 3.5-3.5v-6c0-1.92-1.57-3.5-3.5-3.5z"></path><path d="M64.5 35.62c.83 0 1.5.67 1.5 1.5v6c0 .83-.67 1.5-1.5 1.5s-1.5-.67-1.5-1.5v-6c0-.82.67-1.5 1.5-1.5m0-2c-1.92 0-3.5 1.58-3.5 3.5v6c0 1.92 1.58 3.5 3.5 3.5c1.93 0 3.5-1.58 3.5-3.5v-6c0-1.92-1.57-3.5-3.5-3.5z"></path><path d="M80 35.62c.83 0 1.5.67 1.5 1.5v6c0 .83-.67 1.5-1.5 1.5s-1.5-.67-1.5-1.5v-6c0-.82.67-1.5 1.5-1.5m0-2a3.51 3.51 0 0 0-3.5 3.5v6c0 1.92 1.57 3.5 3.5 3.5s3.5-1.58 3.5-3.5v-6c0-1.92-1.57-3.5-3.5-3.5z"></path><path d="M87.5 35.62c.83 0 1.5.67 1.5 1.5v6c0 .83-.67 1.5-1.5 1.5s-1.5-.67-1.5-1.5v-6c0-.82.67-1.5 1.5-1.5m0-2a3.51 3.51 0 0 0-3.5 3.5v6c0 1.92 1.57 3.5 3.5 3.5s3.5-1.58 3.5-3.5v-6c0-1.92-1.57-3.5-3.5-3.5z"></path><path d="M95 35.62c.83 0 1.5.67 1.5 1.5v6c0 .83-.67 1.5-1.5 1.5s-1.5-.67-1.5-1.5v-6c0-.82.67-1.5 1.5-1.5m0-2a3.51 3.51 0 0 0-3.5 3.5v6c0 1.92 1.57 3.5 3.5 3.5s3.5-1.58 3.5-3.5v-6c0-1.92-1.57-3.5-3.5-3.5z"></path><path d="M102.5 35.62c.83 0 1.5.67 1.5 1.5v6c0 .83-.67 1.5-1.5 1.5s-1.5-.67-1.5-1.5v-6c0-.82.67-1.5 1.5-1.5m0-2a3.51 3.51 0 0 0-3.5 3.5v6c0 1.92 1.57 3.5 3.5 3.5s3.5-1.58 3.5-3.5v-6c0-1.92-1.57-3.5-3.5-3.5z"></path></g><linearGradient id="IconifyId-178e66c5c82-d7ef17-16143" x1="56.5" x2="56.5" y1="33.625" y2="46.625" gradientUnits="userSpaceOnUse"><stop stop-color="#FBC02D" offset="0"></stop><stop stop-color="#FAB022" offset=".102"></stop><stop stop-color="#F89913" offset=".286"></stop><stop stop-color="#F68908" offset=".486"></stop><stop stop-color="#F57F02" offset=".708"></stop><stop stop-color="#F57C00" offset=".999"></stop></linearGradient><path d="M56.5 46.62c-1.93 0-3.5-1.57-3.5-3.5v-6c0-1.92 1.57-3.5 3.5-3.5c1.92 0 3.5 1.57 3.5 3.5v6c0 1.93-1.57 3.5-3.5 3.5z" fill="url(#IconifyId-178e66c5c82-d7ef17-16143)"></path><path d="M56.5 35.62c.83 0 1.5.67 1.5 1.5v6c0 .83-.67 1.5-1.5 1.5s-1.5-.67-1.5-1.5v-6c0-.82.67-1.5 1.5-1.5m0-2c-1.92 0-3.5 1.58-3.5 3.5v6c0 1.92 1.58 3.5 3.5 3.5s3.5-1.58 3.5-3.5v-6c0-1.92-1.58-3.5-3.5-3.5z" fill="#424242" opacity=".2"></path><linearGradient id="IconifyId-178e66c5c82-d7ef17-16144" x1="73.5" x2="73.5" y1="14" y2="27" gradientUnits="userSpaceOnUse"><stop stop-color="#F44336" offset=".001"></stop><stop stop-color="#E51D25" offset="1"></stop></linearGradient><path d="M73.5 27c-1.93 0-3.5-1.57-3.5-3.5v-6c0-1.92 1.57-3.5 3.5-3.5s3.5 1.57 3.5 3.5v6c0 1.93-1.57 3.5-3.5 3.5z" fill="url(#IconifyId-178e66c5c82-d7ef17-16144)"></path><path d="M73.5 16c.83 0 1.5.67 1.5 1.5v6c0 .83-.67 1.5-1.5 1.5s-1.5-.67-1.5-1.5v-6c0-.83.67-1.5 1.5-1.5m0-2a3.51 3.51 0 0 0-3.5 3.5v6c0 1.92 1.57 3.5 3.5 3.5s3.5-1.58 3.5-3.5v-6c0-1.92-1.57-3.5-3.5-3.5z" fill="#424242" opacity=".2"></path><linearGradient id="IconifyId-178e66c5c82-d7ef17-16145" x1="101.5" x2="101.5" y1="53" y2="66" gradientUnits="userSpaceOnUse"><stop stop-color="#FCEE21" offset="0"></stop><stop stop-color="#FAEC1D" offset=".051"></stop><stop stop-color="#F0E20D" offset=".316"></stop><stop stop-color="#EADC03" offset=".612"></stop><stop stop-color="#E8DA00" offset="1"></stop></linearGradient><path d="M101.5 66c-1.93 0-3.5-1.57-3.5-3.5v-6c0-1.92 1.57-3.5 3.5-3.5s3.5 1.57 3.5 3.5v6c0 1.93-1.57 3.5-3.5 3.5z" fill="url(#IconifyId-178e66c5c82-d7ef17-16145)"></path><path d="M101.5 55c.83 0 1.5.67 1.5 1.5v6c0 .83-.67 1.5-1.5 1.5s-1.5-.67-1.5-1.5v-6c0-.83.67-1.5 1.5-1.5m0-2a3.51 3.51 0 0 0-3.5 3.5v6c0 1.93 1.57 3.5 3.5 3.5s3.5-1.57 3.5-3.5v-6c0-1.92-1.57-3.5-3.5-3.5z" fill="#424242" opacity=".2"></path><linearGradient id="IconifyId-178e66c5c82-d7ef17-16146" x1="101.5" x2="101.5" y1="72" y2="85" gradientUnits="userSpaceOnUse"><stop stop-color="#8CC63F" offset="0"></stop><stop stop-color="#79C340" offset=".081"></stop><stop stop-color="#52BC42" offset=".277"></stop><stop stop-color="#33B643" offset=".471"></stop><stop stop-color="#1DB244" offset=".658"></stop><stop stop-color="#10B045" offset=".838"></stop><stop stop-color="#0BAF45" offset="1"></stop></linearGradient><path d="M101.5 85c-1.93 0-3.5-1.57-3.5-3.5v-6c0-1.93 1.57-3.5 3.5-3.5s3.5 1.57 3.5 3.5v6c0 1.93-1.57 3.5-3.5 3.5z" fill="url(#IconifyId-178e66c5c82-d7ef17-16146)"></path><path d="M101.5 74c.83 0 1.5.67 1.5 1.5v6c0 .83-.67 1.5-1.5 1.5s-1.5-.67-1.5-1.5v-6c0-.83.67-1.5 1.5-1.5m0-2c-1.93 0-3.5 1.57-3.5 3.5v6c0 1.93 1.57 3.5 3.5 3.5s3.5-1.57 3.5-3.5v-6c0-1.93-1.57-3.5-3.5-3.5z" fill="#424242" opacity=".2"></path><linearGradient id="IconifyId-178e66c5c82-d7ef17-16147" x1="51.5" x2="51.5" y1="91" y2="104" gradientUnits="userSpaceOnUse"><stop stop-color="#2196F3" offset="0"></stop><stop stop-color="#1F8DEA" offset=".459"></stop><stop stop-color="#1E88E5" offset="1"></stop></linearGradient><path d="M51.5 104c-1.93 0-3.5-1.57-3.5-3.5v-6c0-1.93 1.57-3.5 3.5-3.5c1.92 0 3.5 1.57 3.5 3.5v6c0 1.93-1.57 3.5-3.5 3.5z" fill="url(#IconifyId-178e66c5c82-d7ef17-16147)"></path><path d="M51.5 93c.83 0 1.5.67 1.5 1.5v6c0 .83-.67 1.5-1.5 1.5s-1.5-.67-1.5-1.5v-6c0-.83.67-1.5 1.5-1.5m0-2a3.51 3.51 0 0 0-3.5 3.5v6c0 1.93 1.58 3.5 3.5 3.5s3.5-1.57 3.5-3.5v-6c0-1.93-1.58-3.5-3.5-3.5z" fill="#424242" opacity=".2"></path><linearGradient id="IconifyId-178e66c5c82-d7ef17-16148" x1="94" x2="94" y1="72" y2="85" gradientUnits="userSpaceOnUse"><stop stop-color="#8CC63F" offset="0"></stop><stop stop-color="#79C340" offset=".081"></stop><stop stop-color="#52BC42" offset=".277"></stop><stop stop-color="#33B643" offset=".471"></stop><stop stop-color="#1DB244" offset=".658"></stop><stop stop-color="#10B045" offset=".838"></stop><stop stop-color="#0BAF45" offset="1"></stop></linearGradient><path d="M94 85c-1.93 0-3.5-1.57-3.5-3.5v-6c0-1.93 1.57-3.5 3.5-3.5s3.5 1.57 3.5 3.5v6c0 1.93-1.57 3.5-3.5 3.5z" fill="url(#IconifyId-178e66c5c82-d7ef17-16148)"></path><path d="M94 74c.83 0 1.5.67 1.5 1.5v6c0 .83-.67 1.5-1.5 1.5s-1.5-.67-1.5-1.5v-6c0-.83.67-1.5 1.5-1.5m0-2c-1.93 0-3.5 1.57-3.5 3.5v6c0 1.93 1.57 3.5 3.5 3.5s3.5-1.57 3.5-3.5v-6c0-1.93-1.57-3.5-3.5-3.5z" fill="#424242" opacity=".2"></path><linearGradient id="IconifyId-178e66c5c82-d7ef17-16149" x1="86.5" x2="86.5" y1="72" y2="85" gradientUnits="userSpaceOnUse"><stop stop-color="#8CC63F" offset="0"></stop><stop stop-color="#79C340" offset=".081"></stop><stop stop-color="#52BC42" offset=".277"></stop><stop stop-color="#33B643" offset=".471"></stop><stop stop-color="#1DB244" offset=".658"></stop><stop stop-color="#10B045" offset=".838"></stop><stop stop-color="#0BAF45" offset="1"></stop></linearGradient><path d="M86.5 85c-1.93 0-3.5-1.57-3.5-3.5v-6c0-1.93 1.57-3.5 3.5-3.5s3.5 1.57 3.5 3.5v6c0 1.93-1.57 3.5-3.5 3.5z" fill="url(#IconifyId-178e66c5c82-d7ef17-16149)"></path><path d="M86.5 74c.83 0 1.5.67 1.5 1.5v6c0 .83-.67 1.5-1.5 1.5s-1.5-.67-1.5-1.5v-6c0-.83.67-1.5 1.5-1.5m0-2c-1.93 0-3.5 1.57-3.5 3.5v6c0 1.93 1.57 3.5 3.5 3.5s3.5-1.57 3.5-3.5v-6c0-1.93-1.57-3.5-3.5-3.5z" fill="#424242" opacity=".2"></path><g fill="#424242" opacity=".2"><path d="M25.5 54.93c.83 0 1.5.67 1.5 1.5v6c0 .83-.67 1.5-1.5 1.5s-1.5-.67-1.5-1.5v-6c0-.83.67-1.5 1.5-1.5m0-2c-1.92 0-3.5 1.58-3.5 3.5v6c0 1.93 1.58 3.5 3.5 3.5s3.5-1.57 3.5-3.5v-6c0-1.93-1.58-3.5-3.5-3.5z"></path><path d="M33.5 54.93c.83 0 1.5.67 1.5 1.5v6c0 .83-.67 1.5-1.5 1.5s-1.5-.67-1.5-1.5v-6c0-.83.67-1.5 1.5-1.5m0-2c-1.92 0-3.5 1.58-3.5 3.5v6c0 1.93 1.58 3.5 3.5 3.5s3.5-1.57 3.5-3.5v-6c0-1.93-1.58-3.5-3.5-3.5z"></path><path d="M41.5 54.93c.83 0 1.5.67 1.5 1.5v6c0 .83-.67 1.5-1.5 1.5s-1.5-.67-1.5-1.5v-6c0-.83.67-1.5 1.5-1.5m0-2c-1.92 0-3.5 1.58-3.5 3.5v6c0 1.93 1.58 3.5 3.5 3.5s3.5-1.57 3.5-3.5v-6c0-1.93-1.58-3.5-3.5-3.5z"></path><path d="M49.5 54.93c.83 0 1.5.67 1.5 1.5v6c0 .83-.67 1.5-1.5 1.5s-1.5-.67-1.5-1.5v-6c0-.83.67-1.5 1.5-1.5m0-2c-1.92 0-3.5 1.58-3.5 3.5v6c0 1.93 1.58 3.5 3.5 3.5s3.5-1.57 3.5-3.5v-6c0-1.93-1.58-3.5-3.5-3.5z"></path><path d="M57.5 54.93c.83 0 1.5.67 1.5 1.5v6c0 .83-.67 1.5-1.5 1.5s-1.5-.67-1.5-1.5v-6c0-.83.67-1.5 1.5-1.5m0-2c-1.92 0-3.5 1.58-3.5 3.5v6c0 1.93 1.58 3.5 3.5 3.5s3.5-1.57 3.5-3.5v-6c0-1.93-1.58-3.5-3.5-3.5z"></path><path d="M65.5 54.93c.83 0 1.5.67 1.5 1.5v6c0 .83-.67 1.5-1.5 1.5s-1.5-.67-1.5-1.5v-6c0-.83.67-1.5 1.5-1.5m0-2c-1.92 0-3.5 1.58-3.5 3.5v6c0 1.93 1.58 3.5 3.5 3.5c1.93 0 3.5-1.57 3.5-3.5v-6c0-1.93-1.57-3.5-3.5-3.5z"></path><path d="M73.5 54.93c.83 0 1.5.67 1.5 1.5v6c0 .83-.67 1.5-1.5 1.5s-1.5-.67-1.5-1.5v-6c0-.83.67-1.5 1.5-1.5m0-2a3.51 3.51 0 0 0-3.5 3.5v6c0 1.93 1.57 3.5 3.5 3.5s3.5-1.57 3.5-3.5v-6c0-1.93-1.57-3.5-3.5-3.5z"></path><path d="M81.5 54.93c.83 0 1.5.67 1.5 1.5v6c0 .83-.67 1.5-1.5 1.5s-1.5-.67-1.5-1.5v-6c0-.83.67-1.5 1.5-1.5m0-2a3.51 3.51 0 0 0-3.5 3.5v6c0 1.93 1.57 3.5 3.5 3.5s3.5-1.57 3.5-3.5v-6c0-1.93-1.57-3.5-3.5-3.5z"></path><path d="M89.5 54.93c.83 0 1.5.67 1.5 1.5v6c0 .83-.67 1.5-1.5 1.5s-1.5-.67-1.5-1.5v-6c0-.83.67-1.5 1.5-1.5m0-2a3.51 3.51 0 0 0-3.5 3.5v6c0 1.93 1.57 3.5 3.5 3.5s3.5-1.57 3.5-3.5v-6c0-1.93-1.57-3.5-3.5-3.5z"></path></g><g fill="#424242" opacity=".2"><path d="M25.5 92.93c.83 0 1.5.67 1.5 1.5v6c0 .83-.67 1.5-1.5 1.5s-1.5-.67-1.5-1.5v-6c0-.83.67-1.5 1.5-1.5m0-2a3.51 3.51 0 0 0-3.5 3.5v6c0 1.93 1.58 3.5 3.5 3.5s3.5-1.57 3.5-3.5v-6c0-1.93-1.58-3.5-3.5-3.5z"></path><path d="M33.5 92.93c.83 0 1.5.67 1.5 1.5v6c0 .83-.67 1.5-1.5 1.5s-1.5-.67-1.5-1.5v-6c0-.83.67-1.5 1.5-1.5m0-2a3.51 3.51 0 0 0-3.5 3.5v6c0 1.93 1.58 3.5 3.5 3.5s3.5-1.57 3.5-3.5v-6c0-1.93-1.58-3.5-3.5-3.5z"></path><path d="M41.5 92.93c.83 0 1.5.67 1.5 1.5v6c0 .83-.67 1.5-1.5 1.5s-1.5-.67-1.5-1.5v-6c0-.83.67-1.5 1.5-1.5m0-2a3.51 3.51 0 0 0-3.5 3.5v6c0 1.93 1.58 3.5 3.5 3.5s3.5-1.57 3.5-3.5v-6c0-1.93-1.58-3.5-3.5-3.5z"></path><path d="M67.5 92.93c.83 0 1.5.67 1.5 1.5v6c0 .83-.67 1.5-1.5 1.5s-1.5-.67-1.5-1.5v-6c0-.83.67-1.5 1.5-1.5m0-2c-1.93 0-3.5 1.57-3.5 3.5v6c0 1.93 1.57 3.5 3.5 3.5s3.5-1.57 3.5-3.5v-6c0-1.93-1.57-3.5-3.5-3.5z"></path><path d="M59.5 92.93c.83 0 1.5.67 1.5 1.5v6c0 .83-.67 1.5-1.5 1.5s-1.5-.67-1.5-1.5v-6c0-.83.67-1.5 1.5-1.5m0-2a3.51 3.51 0 0 0-3.5 3.5v6c0 1.93 1.58 3.5 3.5 3.5s3.5-1.57 3.5-3.5v-6c0-1.93-1.58-3.5-3.5-3.5z"></path><path d="M79 92.93c.83 0 1.5.67 1.5 1.5v6c0 .83-.67 1.5-1.5 1.5s-1.5-.67-1.5-1.5v-6c0-.83.67-1.5 1.5-1.5m0-2c-1.93 0-3.5 1.57-3.5 3.5v6c0 1.93 1.57 3.5 3.5 3.5s3.5-1.57 3.5-3.5v-6c0-1.93-1.57-3.5-3.5-3.5z"></path><path d="M86.5 92.93c.83 0 1.5.67 1.5 1.5v6c0 .83-.67 1.5-1.5 1.5s-1.5-.67-1.5-1.5v-6c0-.83.67-1.5 1.5-1.5m0-2c-1.93 0-3.5 1.57-3.5 3.5v6c0 1.93 1.57 3.5 3.5 3.5s3.5-1.57 3.5-3.5v-6c0-1.93-1.57-3.5-3.5-3.5z"></path><path d="M94 92.93c.83 0 1.5.67 1.5 1.5v6c0 .83-.67 1.5-1.5 1.5s-1.5-.67-1.5-1.5v-6c0-.83.67-1.5 1.5-1.5m0-2c-1.93 0-3.5 1.57-3.5 3.5v6c0 1.93 1.57 3.5 3.5 3.5s3.5-1.57 3.5-3.5v-6c0-1.93-1.57-3.5-3.5-3.5z"></path><path d="M101.5 92.93c.83 0 1.5.67 1.5 1.5v6c0 .83-.67 1.5-1.5 1.5s-1.5-.67-1.5-1.5v-6c0-.83.67-1.5 1.5-1.5m0-2c-1.93 0-3.5 1.57-3.5 3.5v6c0 1.93 1.57 3.5 3.5 3.5s3.5-1.57 3.5-3.5v-6c0-1.93-1.57-3.5-3.5-3.5z"></path></g></svg>